<?xml version="1.0" encoding="UTF-8" standalone="no"?>
<!DOCTYPE svg PUBLIC "-//W3C//DTD SVG 1.1//EN" "http://www.w3.org/Graphics/SVG/1.1/DTD/svg11.dtd">
<svg width="100%" height="100%" viewBox="0 0 60 60" version="1.1" xmlns="http://www.w3.org/2000/svg" xmlns:xlink="http://www.w3.org/1999/xlink" xml:space="preserve" xmlns:serif="http://www.serif.com/" style="fill-rule:evenodd;clip-rule:evenodd;stroke-linejoin:round;stroke-miterlimit:2;">
    <g transform="matrix(1,0,0,1,-2250.3,-1932.13)">
        <g transform="matrix(5.55556,0,0,5.55556,0,0)">
            <clipPath id="_clip1">
                <path d="M546.474,174.758L546.474,440.397C546.474,447.467 540.742,453.199 533.672,453.199L61.604,453.199C54.533,453.199 48.802,447.467 48.802,440.397L48.802,174.758C48.802,167.688 54.533,161.957 61.604,161.957L533.672,161.957C540.742,161.957 546.474,167.688 546.474,174.758Z"/>
            </clipPath>
            <g clip-path="url(#_clip1)">
                <g>
                    <clipPath id="_clip2">
                        <path d="M536.072,344.383L536.072,376.388C536.072,379.481 533.565,381.988 530.471,381.988L308.839,381.988C305.746,381.988 303.239,379.481 303.239,376.388L303.239,344.383C303.239,341.29 305.746,338.782 308.839,338.782L530.471,338.782C533.565,338.782 536.072,341.29 536.072,344.383Z"/>
                    </clipPath>
                    <g clip-path="url(#_clip2)">
                        <g transform="matrix(1,0,0,1,0,-134.067)">
                            <path d="M409.676,484.557C407.786,484.557 406.253,486.089 406.253,487.979C406.253,489.869 407.786,491.401 409.676,491.401C411.566,491.401 413.098,489.869 413.098,487.979C413.098,487.647 413.366,487.379 413.698,487.379C414.029,487.379 414.298,487.647 414.298,487.979C414.298,490.532 412.228,492.601 409.676,492.601C407.123,492.601 405.053,490.532 405.053,487.979C405.053,485.426 407.123,483.356 409.676,483.356C410.007,483.356 410.276,483.625 410.276,483.956C410.276,484.288 410.007,484.557 409.676,484.557Z" style="fill:rgb(255,192,0);"/>
                        </g>
                        <g transform="matrix(1,0,0,1,0,-141.78)">
                            <path d="M408.221,489.757C408.446,489.513 408.825,489.497 409.069,489.721L410.811,491.322C411.055,491.547 411.071,491.926 410.847,492.17L409.246,493.912C409.022,494.156 408.642,494.172 408.398,493.948C408.154,493.724 408.138,493.344 408.362,493.1L409.557,491.8L408.257,490.605C408.013,490.381 407.997,490.001 408.221,489.757Z" style="fill:rgb(255,192,0);"/>
                        </g>
                        <g transform="matrix(1,0,0,1,0,-140.626)">
                            <path d="M415.175,490.682L414.079,490.682L414.079,489.586C414.079,489.266 413.823,489.01 413.503,489.01C413.183,489.01 412.926,489.266 412.926,489.586L412.926,490.682L411.83,490.682C411.51,490.682 411.254,490.938 411.254,491.258C411.254,491.578 411.51,491.834 411.83,491.834L412.926,491.834L412.926,492.93C412.926,493.25 413.183,493.506 413.503,493.506C413.823,493.506 414.079,493.25 414.079,492.93L414.079,491.834L415.175,491.834C415.495,491.834 415.751,491.578 415.751,491.258C415.751,490.938 415.495,490.682 415.175,490.682Z" style="fill:rgb(255,192,0);fill-rule:nonzero;"/>
                        </g>
                    </g>
                </g>
            </g>
        </g>
    </g>
</svg>
