<?xml version="1.0" encoding="UTF-8" standalone="no"?>
<!DOCTYPE svg PUBLIC "-//W3C//DTD SVG 1.1//EN" "http://www.w3.org/Graphics/SVG/1.1/DTD/svg11.dtd">
<svg width="100%" height="100%" viewBox="0 0 96 96" version="1.1" xmlns="http://www.w3.org/2000/svg" xmlns:xlink="http://www.w3.org/1999/xlink" xml:space="preserve" xmlns:serif="http://www.serif.com/" style="fill-rule:evenodd;clip-rule:evenodd;stroke-linejoin:round;stroke-miterlimit:2;">
    <g transform="matrix(1,0,0,1,-734.522,-629.719)">
        <g>
            <g transform="matrix(5.55556,0,0,5.55556,0,-3375.5)">
                <path d="M135.214,728.54L136.815,728.54C138.751,728.54 139.815,727.476 139.815,725.54L139.815,723.94C139.815,722.003 138.751,720.939 136.815,720.939L135.214,720.939C133.278,720.939 132.214,722.003 132.214,723.94L132.214,725.54C132.214,727.476 133.278,728.54 135.214,728.54ZM133.414,723.94C133.414,722.675 133.95,722.139 135.214,722.139L136.815,722.139C138.079,722.139 138.615,722.675 138.615,723.94L138.615,725.54C138.615,726.804 138.079,727.34 136.815,727.34L135.214,727.34C133.95,727.34 133.414,726.804 133.414,725.54L133.414,723.94Z" style="fill:rgb(0,36,51);"/>
            </g>
            <g transform="matrix(5.55556,0,0,5.55556,0,-3375.5)">
                <path d="M144.816,728.54L146.416,728.54C148.352,728.54 149.416,727.476 149.416,725.54L149.416,723.94C149.416,722.003 148.352,720.939 146.416,720.939L144.816,720.939C142.879,720.939 141.815,722.003 141.815,723.94L141.815,725.54C141.815,727.476 142.879,728.54 144.816,728.54ZM143.015,723.94C143.015,722.675 143.552,722.139 144.816,722.139L146.416,722.139C147.68,722.139 148.216,722.675 148.216,723.94L148.216,725.54C148.216,726.804 147.68,727.34 146.416,727.34L144.816,727.34C143.552,727.34 143.015,726.804 143.015,725.54L143.015,723.94Z" style="fill:rgb(0,36,51);"/>
            </g>
            <g transform="matrix(5.55556,0,0,5.55556,0,-3268.82)">
                <path d="M146.416,718.939L144.816,718.939C142.879,718.939 141.815,717.875 141.815,715.938L141.815,714.338C141.815,712.402 142.879,711.338 144.816,711.338L146.416,711.338C148.352,711.338 149.416,712.402 149.416,714.338L149.416,715.938C149.416,717.875 148.352,718.939 146.416,718.939ZM144.816,712.538C143.552,712.538 143.015,713.074 143.015,714.338L143.015,715.938C143.015,717.203 143.552,717.739 144.816,717.739L146.416,717.739C147.68,717.739 148.216,717.203 148.216,715.938L148.216,714.338C148.216,713.074 147.68,712.538 146.416,712.538L144.816,712.538Z" style="fill:rgb(0,36,51);"/>
            </g>
            <g transform="matrix(5.55556,0,0,5.55556,0,-3268.82)">
                <path d="M135.214,718.939L136.815,718.939C138.751,718.939 139.815,717.875 139.815,715.938L139.815,714.338C139.815,712.402 138.751,711.338 136.815,711.338L135.214,711.338C133.278,711.338 132.214,712.402 132.214,714.338L132.214,715.938C132.214,717.875 133.278,718.939 135.214,718.939ZM133.414,714.338C133.414,713.074 133.95,712.538 135.214,712.538L136.815,712.538C138.079,712.538 138.615,713.074 138.615,714.338L138.615,715.938C138.615,717.203 138.079,717.739 136.815,717.739L135.214,717.739C133.95,717.739 133.414,717.203 133.414,715.938L133.414,714.338Z" style="fill:rgb(0,36,51);"/>
            </g>
        </g>
    </g>
</svg>
