<?xml version="1.0" encoding="UTF-8" standalone="no"?>
<!DOCTYPE svg PUBLIC "-//W3C//DTD SVG 1.1//EN" "http://www.w3.org/Graphics/SVG/1.1/DTD/svg11.dtd">
<svg width="100%" height="100%" viewBox="0 0 173 178" version="1.1" xmlns="http://www.w3.org/2000/svg" xmlns:xlink="http://www.w3.org/1999/xlink" xml:space="preserve" xmlns:serif="http://www.serif.com/" style="fill-rule:evenodd;clip-rule:evenodd;stroke-linejoin:round;stroke-miterlimit:2;">
    <g transform="matrix(1,0,0,1,-1157.92,-1882.12)">
        <g transform="matrix(5.55556,0,0,5.55556,0,0)">
            <g>
                <clipPath id="_clip1">
                    <path d="M274.434,325.18L274.434,421.194C274.434,424.287 271.927,426.795 268.834,426.795L179.221,426.795C176.127,426.795 173.62,424.287 173.62,421.194L173.62,325.18C173.62,322.087 176.127,319.579 179.221,319.579L268.834,319.579C271.927,319.579 274.434,322.087 274.434,325.18Z"/>
                </clipPath>
                <g clip-path="url(#_clip1)">
                    <g transform="matrix(1,0,0,1,0,-132.322)">
                        <path d="M239.344,474.137C237.999,472.108 223.982,471.104 223.982,471.104C223.982,471.104 209.964,472.108 208.618,474.137C207.893,475.232 209.192,489.385 212.853,495.179C216.515,500.973 223.982,503.108 223.982,503.108C223.982,503.108 231.448,500.973 235.11,495.179C238.771,489.385 240.071,475.231 239.345,474.137L239.344,474.137Z" style="fill:rgb(125,181,255);fill-rule:nonzero;"/>
                    </g>
                    <g transform="matrix(1,0,0,1,0,-129.548)">
                        <path d="M239.343,471.364C239.284,471.275 239.201,471.188 239.095,471.103C239.245,474.76 237.845,486.029 234.677,491.042C231.016,496.836 223.549,498.971 223.549,498.971C223.549,498.971 216.083,496.836 212.421,491.042C211.727,489.944 211.118,488.544 210.591,486.991C211.207,489.087 211.96,490.994 212.852,492.406C216.513,498.2 223.98,500.335 223.98,500.335C223.98,500.335 231.446,498.2 235.108,492.406C238.769,486.612 240.07,472.458 239.343,471.365L239.343,471.364Z" style="fill:rgb(64,118,189);fill-rule:nonzero;"/>
                    </g>
                    <g transform="matrix(1,0,0,1,0,-133.34)">
                        <path d="M236.801,476.793C235.678,475.1 223.981,474.263 223.981,474.263C223.981,474.263 212.285,475.1 211.161,476.793C210.556,477.706 211.641,489.517 214.696,494.351C217.75,499.186 223.981,500.967 223.981,500.967C223.981,500.967 230.211,499.186 233.267,494.351C236.321,489.517 237.407,477.706 236.801,476.793Z" style="fill:rgb(213,231,255);fill-rule:nonzero;"/>
                    </g>
                </g>
            </g>
        </g>
        <g transform="matrix(5.55556,0,0,5.55556,0,0)">
            <g>
                <clipPath id="_clip2">
                    <path d="M274.434,325.18L274.434,421.194C274.434,424.287 271.927,426.795 268.834,426.795L179.221,426.795C176.127,426.795 173.62,424.287 173.62,421.194L173.62,325.18C173.62,322.087 176.127,319.579 179.221,319.579L268.834,319.579C271.927,319.579 274.434,322.087 274.434,325.18Z"/>
                </clipPath>
                <g clip-path="url(#_clip2)">
                    <g opacity="0.49">
                        <g transform="matrix(1,0,0,1,0,-142.623)">
                            <path d="M214.965,485.833C214.228,486.175 213.494,486.636 213.124,487.359C212.865,487.865 212.81,488.449 212.783,489.017C212.6,492.814 213.434,496.655 215.176,500.034C215.354,500.378 215.6,500.758 215.985,500.791C214.982,498.075 214.428,495.196 214.35,492.302C214.327,491.449 214.348,490.582 214.606,489.77C214.864,488.958 215.392,488.198 216.159,487.828C216.728,487.553 217.377,487.511 217.991,487.359C218.604,487.207 219.242,486.891 219.483,486.307C220.549,483.722 215.603,485.537 214.965,485.833Z" style="fill:white;fill-rule:nonzero;"/>
                        </g>
                    </g>
                </g>
            </g>
        </g>
        <g transform="matrix(5.55556,0,0,5.55556,0,-772.117)">
            <g>
                <g>
                    <clipPath id="_clip3">
                        <path d="M274.434,464.161L274.434,560.175C274.434,563.268 271.927,565.775 268.834,565.775L179.221,565.775C176.127,565.775 173.62,563.268 173.62,560.175L173.62,464.161C173.62,461.067 176.127,458.56 179.221,458.56L268.834,458.56C271.927,458.56 274.434,461.067 274.434,464.161Z"/>
                    </clipPath>
                    <g clip-path="url(#_clip3)">
                        <path d="M227.551,494.847C227.64,495.37 227.09,495.767 226.621,495.52L224.267,494.276C224.081,494.177 223.858,494.177 223.671,494.275L221.313,495.508C220.843,495.754 220.295,495.354 220.386,494.832L220.841,492.209C220.877,492.001 220.809,491.789 220.658,491.642L218.756,489.78C218.377,489.409 218.588,488.764 219.113,488.689L221.748,488.312C221.957,488.282 222.137,488.151 222.231,487.963L223.414,485.578C223.649,485.103 224.328,485.105 224.562,485.581L225.735,487.97C225.828,488.159 226.007,488.291 226.216,488.321L228.849,488.71C229.374,488.787 229.583,489.433 229.202,489.802L227.292,491.656C227.141,491.803 227.071,492.015 227.107,492.222L227.551,494.847Z" style="fill:rgb(125,181,255);fill-rule:nonzero;"/>
                    </g>
                </g>
            </g>
        </g>
    </g>
</svg>
