<?xml version="1.0" encoding="UTF-8" standalone="no"?>
<!DOCTYPE svg PUBLIC "-//W3C//DTD SVG 1.1//EN" "http://www.w3.org/Graphics/SVG/1.1/DTD/svg11.dtd">
<svg width="100%" height="100%" viewBox="0 0 173 178" version="1.1" xmlns="http://www.w3.org/2000/svg" xmlns:xlink="http://www.w3.org/1999/xlink" xml:space="preserve" xmlns:serif="http://www.serif.com/" style="fill-rule:evenodd;clip-rule:evenodd;stroke-linejoin:round;stroke-miterlimit:2;">
    <g transform="matrix(1,0,0,1,-1780.23,-1882.12)">
        <g transform="matrix(5.55556,0,0,5.55556,0,0)">
            <clipPath id="_clip1">
                <path d="M386.451,325.18L386.451,421.194C386.451,424.287 383.943,426.795 380.85,426.795L291.237,426.795C288.144,426.795 285.636,424.287 285.636,421.194L285.636,325.18C285.636,322.087 288.144,319.579 291.237,319.579L380.85,319.579C383.943,319.579 386.451,322.087 386.451,325.18Z"/>
            </clipPath>
            <g clip-path="url(#_clip1)">
                <g transform="matrix(1,0,0,1,0,-132.322)">
                    <path d="M351.36,474.137C350.015,472.108 335.998,471.104 335.998,471.104C335.998,471.104 321.98,472.108 320.634,474.137C319.909,475.232 321.208,489.385 324.87,495.179C328.531,500.973 335.998,503.108 335.998,503.108C335.998,503.108 343.464,500.973 347.126,495.179C350.787,489.385 352.087,475.231 351.361,474.137L351.36,474.137Z" style="fill:rgb(200,200,200);fill-rule:nonzero;"/>
                </g>
                <g transform="matrix(1,0,0,1,0,-129.548)">
                    <path d="M351.36,471.364C351.3,471.275 351.217,471.188 351.111,471.103C351.261,474.76 349.861,486.029 346.693,491.042C343.032,496.836 335.565,498.971 335.565,498.971C335.565,498.971 328.099,496.836 324.437,491.042C323.743,489.944 323.134,488.544 322.607,486.991C323.223,489.087 323.976,490.994 324.868,492.406C328.529,498.2 335.996,500.335 335.996,500.335C335.996,500.335 343.462,498.2 347.124,492.406C350.785,486.612 352.086,472.458 351.36,471.365L351.36,471.364Z" style="fill:rgb(143,143,143);fill-rule:nonzero;"/>
                </g>
                <g transform="matrix(1,0,0,1,0,-133.34)">
                    <path d="M348.817,476.793C347.694,475.1 335.997,474.263 335.997,474.263C335.997,474.263 324.301,475.1 323.178,476.793C322.572,477.706 323.657,489.517 326.712,494.351C329.766,499.186 335.997,500.967 335.997,500.967C335.997,500.967 342.227,499.186 345.283,494.351C348.337,489.517 349.423,477.706 348.817,476.793Z" style="fill:rgb(224,224,224);fill-rule:nonzero;"/>
                </g>
            </g>
        </g>
        <g transform="matrix(5.55556,0,0,5.55556,0,0)">
            <clipPath id="_clip2">
                <path d="M386.451,325.18L386.451,421.194C386.451,424.287 383.943,426.795 380.85,426.795L291.237,426.795C288.144,426.795 285.636,424.287 285.636,421.194L285.636,325.18C285.636,322.087 288.144,319.579 291.237,319.579L380.85,319.579C383.943,319.579 386.451,322.087 386.451,325.18Z"/>
            </clipPath>
            <g clip-path="url(#_clip2)">
                <g opacity="0.49">
                    <g transform="matrix(1,0,0,1,0,-142.623)">
                        <path d="M326.981,485.833C326.244,486.175 325.511,486.636 325.14,487.359C324.881,487.865 324.827,488.449 324.799,489.017C324.616,492.814 325.45,496.655 327.192,500.034C327.37,500.378 327.616,500.758 328.001,500.791C326.998,498.075 326.444,495.196 326.366,492.302C326.343,491.449 326.364,490.582 326.622,489.77C326.88,488.958 327.408,488.198 328.175,487.828C328.744,487.553 329.393,487.511 330.007,487.359C330.62,487.207 331.258,486.891 331.499,486.307C332.565,483.722 327.619,485.537 326.981,485.833Z" style="fill:white;fill-rule:nonzero;"/>
                    </g>
                </g>
            </g>
        </g>
        <g transform="matrix(5.55556,0,0,5.55556,0,0)">
            <g transform="matrix(1,0,0,1,0,-138.981)">
                <clipPath id="_clip3">
                    <path d="M386.451,464.161L386.451,560.175C386.451,563.268 383.943,565.775 380.85,565.775L291.237,565.775C288.144,565.775 285.636,563.268 285.636,560.175L285.636,464.161C285.636,461.067 288.144,458.56 291.237,458.56L380.85,458.56C383.943,458.56 386.451,461.067 386.451,464.161Z"/>
                </clipPath>
                <g clip-path="url(#_clip3)">
                    <path d="M339.567,494.847C339.656,495.37 339.106,495.767 338.637,495.52L336.283,494.276C336.097,494.177 335.874,494.177 335.687,494.275L333.329,495.508C332.859,495.754 332.311,495.354 332.402,494.832L332.858,492.209C332.894,492.001 332.825,491.789 332.675,491.642L330.772,489.78C330.393,489.409 330.604,488.764 331.129,488.689L333.765,488.312C333.973,488.282 334.154,488.151 334.247,487.963L335.43,485.578C335.666,485.103 336.344,485.105 336.578,485.581L337.751,487.97C337.844,488.159 338.024,488.291 338.232,488.321L340.866,488.71C341.39,488.787 341.599,489.433 341.218,489.802L339.308,491.656C339.157,491.803 339.088,492.015 339.123,492.222L339.567,494.847Z" style="fill:rgb(200,200,200);fill-rule:nonzero;"/>
                </g>
            </g>
        </g>
    </g>
</svg>
