<?xml version="1.0" encoding="UTF-8" standalone="no"?>
<!DOCTYPE svg PUBLIC "-//W3C//DTD SVG 1.1//EN" "http://www.w3.org/Graphics/SVG/1.1/DTD/svg11.dtd">
<svg width="100%" height="100%" viewBox="0 0 512 512" version="1.1" xmlns="http://www.w3.org/2000/svg" xmlns:xlink="http://www.w3.org/1999/xlink" xml:space="preserve" xmlns:serif="http://www.serif.com/" style="fill-rule:evenodd;clip-rule:evenodd;stroke-linejoin:round;stroke-miterlimit:2;">
    <g transform="matrix(274.949,0,0,274.949,618.011,128.048)">
        <g>
            <g>
                <clipPath id="_clip1">
                    <rect x="-2.233" y="-0.451" width="1.833" height="1.833"/>
                </clipPath>
                <g clip-path="url(#_clip1)">
                    <path d="M-2.228,0.71C-2.205,0.796 -2.116,0.847 -2.03,0.824C-1.944,0.8 -1.893,0.712 -1.916,0.626C-1.939,0.54 -2.027,0.489 -2.113,0.512C-2.155,0.523 -2.19,0.55 -2.212,0.587C-2.233,0.624 -2.239,0.668 -2.228,0.71Z" style="fill:rgb(76,175,122);"/>
                </g>
            </g>
            <g>
                <path d="M-1.635,0.551C-1.624,0.59 -1.583,0.613 -1.544,0.602C-1.505,0.591 -1.482,0.55 -1.493,0.511C-1.504,0.472 -1.544,0.449 -1.584,0.459C-1.623,0.471 -1.646,0.511 -1.635,0.551Z" style="fill:rgb(76,175,122);"/>
            </g>
            <g>
                <path d="M-1.907,0.465C-1.907,0.497 -1.894,0.527 -1.872,0.549C-1.85,0.571 -1.82,0.583 -1.789,0.583C-1.757,0.583 -1.727,0.571 -1.705,0.549C-1.683,0.527 -1.671,0.497 -1.671,0.465C-1.671,0.434 -1.683,0.404 -1.705,0.382C-1.727,0.36 -1.757,0.347 -1.789,0.347C-1.82,0.347 -1.85,0.36 -1.872,0.382C-1.894,0.404 -1.907,0.434 -1.907,0.465Z" style="fill:rgb(76,175,122);"/>
            </g>
            <g>
                <clipPath id="_clip2">
                    <rect x="-2.233" y="-0.451" width="1.833" height="1.833"/>
                </clipPath>
                <g clip-path="url(#_clip2)">
                    <path d="M-1.073,1.376C-0.986,1.353 -0.935,1.265 -0.958,1.179C-0.969,1.137 -0.997,1.102 -1.034,1.08C-1.071,1.059 -1.115,1.053 -1.156,1.064C-1.242,1.088 -1.293,1.176 -1.27,1.262C-1.247,1.348 -1.159,1.399 -1.073,1.376Z" style="fill:rgb(175,44,255);"/>
                </g>
            </g>
            <g>
                <path d="M-1.231,0.784C-1.192,0.773 -1.169,0.732 -1.18,0.693C-1.191,0.653 -1.231,0.63 -1.271,0.64C-1.311,0.651 -1.334,0.692 -1.324,0.732C-1.319,0.751 -1.306,0.768 -1.289,0.778C-1.271,0.787 -1.251,0.79 -1.231,0.784Z" style="fill:rgb(175,44,255);"/>
            </g>
            <g>
                <path d="M-1.317,1.055C-1.252,1.055 -1.199,1.003 -1.199,0.937C-1.199,0.872 -1.251,0.819 -1.317,0.819C-1.382,0.819 -1.435,0.872 -1.435,0.937C-1.435,1.003 -1.382,1.055 -1.317,1.055Z" style="fill:rgb(175,44,255);"/>
            </g>
            <g>
                <path d="M-1.788,1.282C-1.711,1.327 -1.612,1.3 -1.568,1.223C-1.546,1.186 -1.54,1.142 -1.552,1.101C-1.563,1.059 -1.59,1.024 -1.627,1.002C-1.664,0.981 -1.708,0.975 -1.749,0.986C-1.791,0.997 -1.826,1.024 -1.847,1.062C-1.869,1.099 -1.875,1.143 -1.864,1.184C-1.852,1.226 -1.825,1.261 -1.788,1.282Z" style="fill:rgb(76,175,122);"/>
            </g>
            <g>
                <path d="M-1.482,0.751C-1.464,0.761 -1.444,0.764 -1.424,0.759C-1.405,0.754 -1.389,0.741 -1.379,0.724C-1.369,0.707 -1.366,0.686 -1.371,0.667C-1.376,0.647 -1.389,0.631 -1.406,0.621C-1.423,0.611 -1.444,0.608 -1.463,0.613C-1.482,0.618 -1.499,0.631 -1.509,0.648C-1.519,0.665 -1.522,0.686 -1.517,0.705C-1.512,0.725 -1.499,0.741 -1.482,0.751Z" style="fill:rgb(175,44,255);"/>
            </g>
            <g>
                <path d="M-1.734,0.882C-1.712,0.905 -1.682,0.917 -1.65,0.917C-1.619,0.917 -1.589,0.905 -1.567,0.882C-1.521,0.836 -1.521,0.762 -1.567,0.716C-1.589,0.694 -1.619,0.681 -1.65,0.681C-1.682,0.681 -1.712,0.694 -1.734,0.716C-1.756,0.738 -1.768,0.768 -1.768,0.799C-1.768,0.83 -1.756,0.86 -1.734,0.882Z" style="fill:rgb(76,175,122);"/>
            </g>
            <g>
                <path d="M-0.5,0.937C-0.455,0.86 -0.482,0.761 -0.559,0.716C-0.636,0.672 -0.735,0.698 -0.78,0.775C-0.824,0.853 -0.798,0.951 -0.721,0.996C-0.684,1.018 -0.639,1.023 -0.598,1.012C-0.557,1.001 -0.521,0.974 -0.5,0.937Z" style="fill:rgb(175,44,255);"/>
            </g>
            <g>
                <path d="M-1.031,0.63C-1.02,0.613 -1.018,0.592 -1.023,0.573C-1.028,0.554 -1.041,0.537 -1.058,0.527C-1.075,0.517 -1.096,0.514 -1.115,0.52C-1.134,0.525 -1.151,0.537 -1.161,0.555C-1.171,0.572 -1.174,0.592 -1.168,0.612C-1.163,0.631 -1.151,0.648 -1.133,0.657C-1.116,0.668 -1.096,0.67 -1.076,0.665C-1.057,0.66 -1.041,0.648 -1.031,0.63Z" style="fill:rgb(0,148,255);"/>
            </g>
            <g>
                <path d="M-0.899,0.882C-0.853,0.836 -0.853,0.762 -0.899,0.716C-0.922,0.694 -0.952,0.681 -0.983,0.681C-1.014,0.681 -1.044,0.694 -1.066,0.716C-1.089,0.738 -1.101,0.768 -1.101,0.799C-1.101,0.83 -1.089,0.86 -1.066,0.882C-1.044,0.905 -1.014,0.917 -0.983,0.917C-0.952,0.917 -0.922,0.905 -0.899,0.882Z" style="fill:rgb(175,44,255);"/>
            </g>
            <g>
                <path d="M-0.845,-0.351C-0.922,-0.396 -1.021,-0.369 -1.066,-0.292C-1.11,-0.215 -1.084,-0.116 -1.007,-0.072C-0.969,-0.05 -0.925,-0.044 -0.884,-0.056C-0.843,-0.067 -0.807,-0.094 -0.786,-0.131C-0.765,-0.168 -0.759,-0.212 -0.77,-0.253C-0.781,-0.295 -0.808,-0.33 -0.845,-0.351Z" style="fill:rgb(0,148,255);"/>
            </g>
            <g>
                <path d="M-1.152,0.18C-1.169,0.17 -1.19,0.167 -1.209,0.172C-1.228,0.177 -1.245,0.19 -1.255,0.207C-1.265,0.224 -1.268,0.245 -1.263,0.264C-1.257,0.284 -1.245,0.3 -1.227,0.31C-1.21,0.32 -1.19,0.323 -1.17,0.318C-1.151,0.313 -1.135,0.3 -1.125,0.283C-1.114,0.265 -1.112,0.245 -1.117,0.225C-1.122,0.206 -1.135,0.19 -1.152,0.18Z" style="fill:rgb(0,148,255);"/>
            </g>
            <g>
                <path d="M-0.899,0.048C-0.922,0.026 -0.952,0.014 -0.983,0.014C-1.014,0.014 -1.044,0.026 -1.066,0.048C-1.089,0.07 -1.101,0.1 -1.101,0.132C-1.101,0.163 -1.089,0.193 -1.066,0.215C-1.02,0.261 -0.946,0.261 -0.899,0.215C-0.853,0.169 -0.853,0.094 -0.899,0.048Z" style="fill:rgb(0,148,255);"/>
            </g>
            <g>
                <path d="M-0.406,0.221C-0.429,0.135 -0.517,0.084 -0.603,0.107C-0.645,0.118 -0.68,0.145 -0.702,0.182C-0.723,0.219 -0.729,0.263 -0.718,0.305C-0.695,0.391 -0.606,0.442 -0.52,0.419C-0.434,0.396 -0.383,0.307 -0.406,0.221Z" style="fill:rgb(0,148,255);"/>
            </g>
            <g>
                <path d="M-0.998,0.38C-1.009,0.341 -1.05,0.318 -1.089,0.329C-1.129,0.34 -1.152,0.38 -1.141,0.42C-1.13,0.459 -1.089,0.482 -1.05,0.471C-1.01,0.46 -0.987,0.419 -0.998,0.38Z" style="fill:rgb(0,148,255);"/>
            </g>
            <g>
                <path d="M-0.727,0.465C-0.727,0.4 -0.78,0.348 -0.845,0.347C-0.91,0.347 -0.963,0.4 -0.963,0.465C-0.963,0.531 -0.91,0.583 -0.845,0.583C-0.78,0.583 -0.727,0.53 -0.727,0.465Z" style="fill:rgb(0,148,255);"/>
            </g>
            <g>
                <path d="M-1.561,-0.446C-1.647,-0.422 -1.698,-0.334 -1.675,-0.248C-1.664,-0.206 -1.637,-0.171 -1.6,-0.15C-1.563,-0.128 -1.518,-0.123 -1.477,-0.134C-1.436,-0.145 -1.401,-0.172 -1.379,-0.209C-1.358,-0.246 -1.352,-0.29 -1.363,-0.331C-1.386,-0.417 -1.475,-0.469 -1.561,-0.446Z" style="fill:rgb(0,148,255);"/>
            </g>
            <g>
                <path d="M-1.402,0.147C-1.441,0.158 -1.464,0.199 -1.454,0.238C-1.442,0.277 -1.402,0.3 -1.362,0.29C-1.323,0.279 -1.299,0.238 -1.309,0.198C-1.315,0.179 -1.328,0.163 -1.345,0.153C-1.362,0.144 -1.383,0.141 -1.402,0.147Z" style="fill:rgb(0,148,255);"/>
            </g>
            <g>
                <path d="M-1.317,-0.125C-1.348,-0.125 -1.378,-0.112 -1.4,-0.09C-1.422,-0.068 -1.435,-0.038 -1.435,-0.007C-1.435,0.025 -1.422,0.055 -1.4,0.077C-1.378,0.099 -1.348,0.111 -1.317,0.111C-1.285,0.111 -1.255,0.099 -1.233,0.077C-1.211,0.055 -1.199,0.025 -1.199,-0.007C-1.199,-0.038 -1.211,-0.068 -1.233,-0.09C-1.255,-0.112 -1.285,-0.125 -1.317,-0.125Z" style="fill:rgb(0,148,255);"/>
            </g>
            <g>
                <path d="M-2.133,-0.006C-2.155,0.031 -2.161,0.075 -2.15,0.116C-2.139,0.158 -2.112,0.193 -2.074,0.214C-2.037,0.236 -1.993,0.242 -1.952,0.231C-1.91,0.219 -1.875,0.192 -1.854,0.155C-1.809,0.078 -1.836,-0.021 -1.913,-0.065C-1.95,-0.087 -1.994,-0.093 -2.035,-0.081C-2.077,-0.07 -2.112,-0.043 -2.133,-0.006Z" style="fill:rgb(0,148,255);"/>
            </g>
            <g>
                <path d="M-1.602,0.3C-1.612,0.318 -1.615,0.338 -1.61,0.357C-1.605,0.377 -1.592,0.393 -1.575,0.403C-1.558,0.413 -1.537,0.416 -1.518,0.411C-1.499,0.406 -1.482,0.393 -1.472,0.376C-1.462,0.359 -1.459,0.338 -1.464,0.319C-1.47,0.3 -1.482,0.283 -1.499,0.273C-1.517,0.263 -1.537,0.26 -1.557,0.265C-1.576,0.27 -1.592,0.283 -1.602,0.3Z" style="fill:rgb(76,175,122);"/>
            </g>
            <g>
                <path d="M-1.734,0.048C-1.756,0.07 -1.768,0.1 -1.768,0.132C-1.768,0.163 -1.756,0.193 -1.734,0.215C-1.688,0.261 -1.613,0.261 -1.567,0.215C-1.521,0.169 -1.521,0.094 -1.567,0.048C-1.589,0.026 -1.619,0.014 -1.65,0.014C-1.682,0.014 -1.712,0.026 -1.734,0.048Z" style="fill:rgb(0,148,255);"/>
            </g>
        </g>
    </g>
</svg>
