<?xml version="1.0" encoding="UTF-8" standalone="no"?>
<!DOCTYPE svg PUBLIC "-//W3C//DTD SVG 1.1//EN" "http://www.w3.org/Graphics/SVG/1.1/DTD/svg11.dtd">
<svg width="100%" height="100%" viewBox="0 0 1024 1300" version="1.1" xmlns="http://www.w3.org/2000/svg" xmlns:xlink="http://www.w3.org/1999/xlink" xml:space="preserve" xmlns:serif="http://www.serif.com/" style="fill-rule:evenodd;clip-rule:evenodd;stroke-linejoin:round;stroke-miterlimit:2;">
    <g transform="matrix(1,0,0,1,-488.237,-350)">
        <g>
            <path d="M1511.76,1330.5C1511.76,1561.49 1282.63,1650 999.992,1650C717.365,1650 488.237,1561.49 488.237,1330.5C488.237,993.268 879.084,768.244 879.084,587.209C879.084,536.739 844.591,458.615 772.265,373.586C769.513,370.345 766.711,367.088 763.828,363.831C847.799,326.732 911.103,371.795 990.725,410.588C996.344,413.324 1002.09,416.027 1007.99,418.666C1076.14,449.186 1173.01,420.311 1198.18,393.634C1160.57,437.134 1120.91,502.962 1120.91,587.209C1120.91,768.244 1511.76,993.268 1511.76,1330.5Z" style="fill:rgb(233,193,104);fill-rule:nonzero;"/>
            <path d="M558.52,1343.53C556.286,1338.37 554.495,1333.13 552.683,1327.83C551.119,1322.54 549.662,1317.19 548.344,1311.79C547.14,1306.4 546.154,1300.97 545.22,1295.49C544.349,1290.02 543.788,1284.54 543.186,1279.02C541.203,1256.97 541.863,1234.64 544.839,1212.68C547.759,1190.7 552.96,1169.08 559.909,1148.17C566.854,1127.24 575.559,1107.02 585.625,1087.68C595.683,1068.33 607.137,1049.86 619.706,1032.35C632.288,1014.85 645.945,998.263 660.684,982.747C675.37,967.191 691.134,952.701 707.891,939.273C716.289,932.577 724.963,926.161 733.946,920.056C742.999,914.009 752.225,908.158 762.277,903.03C759.308,913.923 755.574,924.142 751.755,934.236C747.891,944.292 743.811,954.111 739.58,963.745C731.103,982.999 722.182,1001.62 713.024,1019.77C694.745,1056.11 675.845,1090.8 657.813,1125.34C639.721,1159.87 622.601,1194.18 606.388,1229.78C598.314,1247.6 590.392,1265.75 582.635,1284.58C580.776,1289.3 578.741,1294.04 576.793,1298.84C574.956,1303.65 572.9,1308.49 570.93,1313.39C569.062,1318.3 566.962,1323.25 564.93,1328.27C562.926,1333.29 560.944,1338.37 558.52,1343.53Z" style="fill:rgb(242,213,145);fill-rule:nonzero;"/>
            <path d="M999.528,1650L999.39,1650L999.528,1650ZM999.072,1650L998.898,1650L999.072,1650ZM998.586,1650L998.444,1650L998.586,1650ZM998.1,1650L997.97,1650L998.1,1650ZM997.508,1650L997.502,1650L997.508,1650ZM997.046,1650L996.915,1650L997.046,1650ZM996.574,1650L996.427,1650L996.574,1650ZM996.118,1649.99L995.945,1649.99L996.118,1649.99ZM995.632,1649.99L995.487,1649.99L995.632,1649.99ZM994.563,1649.99L994.43,1649.99L994.563,1649.99ZM994.101,1649.99L993.948,1649.99L994.101,1649.99ZM993.606,1649.98L993.493,1649.98L993.606,1649.98ZM993.112,1649.98L993.017,1649.98L993.112,1649.98ZM992.088,1649.98L991.948,1649.98L992.088,1649.98ZM991.622,1649.97L991.466,1649.97L991.622,1649.97ZM991.154,1649.97L990.997,1649.97L991.154,1649.97ZM990.645,1649.97L990.542,1649.97L990.645,1649.97ZM989.604,1649.96L989.497,1649.96L989.604,1649.96ZM989.14,1649.96C989.099,1649.96 989.046,1649.96 989.004,1649.95C989.056,1649.96 989.088,1649.96 989.14,1649.96ZM988.654,1649.95L988.542,1649.95L988.654,1649.95ZM988.162,1649.95L988.068,1649.95L988.162,1649.95ZM987.12,1649.94L987.057,1649.94L987.12,1649.94ZM986.643,1649.93L986.562,1649.93L986.643,1649.93ZM986.174,1649.93L986.074,1649.93L986.174,1649.93ZM985.655,1649.92L985.609,1649.92L985.655,1649.92ZM984.651,1649.91L984.579,1649.91L984.651,1649.91ZM984.198,1649.91L984.064,1649.91L984.198,1649.91ZM983.702,1649.9L983.612,1649.9L983.702,1649.9ZM983.182,1649.89L983.143,1649.89L983.182,1649.89ZM982.174,1649.88L982.144,1649.88L982.174,1649.88ZM981.692,1649.87L981.646,1649.87L981.692,1649.87ZM981.207,1649.87L981.162,1649.87L981.207,1649.87ZM979.703,1649.85L979.698,1649.85L979.703,1649.85ZM979.22,1649.84L979.195,1649.84L979.22,1649.84ZM978.725,1649.83L978.711,1649.83L978.725,1649.83ZM976.762,1649.8L976.73,1649.8L976.762,1649.8ZM976.271,1649.79L976.249,1649.79L976.271,1649.79ZM765.884,1624.91C765.876,1624.91 765.863,1624.9 765.854,1624.9C765.868,1624.9 765.87,1624.9 765.884,1624.91ZM765.5,1624.81C765.466,1624.8 765.456,1624.8 765.421,1624.79C765.45,1624.8 765.471,1624.81 765.5,1624.81ZM765.106,1624.72C765.08,1624.71 765.044,1624.7 765.018,1624.69C765.047,1624.7 765.078,1624.71 765.106,1624.72ZM764.698,1624.62C764.68,1624.61 764.639,1624.6 764.622,1624.6C764.651,1624.6 764.669,1624.61 764.698,1624.62ZM764.241,1624.5C764.198,1624.49 764.171,1624.48 764.128,1624.47C764.157,1624.48 764.212,1624.5 764.241,1624.5ZM763.87,1624.41C763.81,1624.4 763.752,1624.38 763.692,1624.37C763.749,1624.38 763.812,1624.4 763.87,1624.41ZM763.498,1624.32C763.43,1624.3 763.367,1624.28 763.298,1624.27C763.369,1624.29 763.427,1624.3 763.498,1624.32ZM763.137,1624.23C763.06,1624.21 762.989,1624.19 762.912,1624.17C762.998,1624.19 763.052,1624.21 763.137,1624.23ZM762.799,1624.14C762.49,1624.07 762.184,1623.99 761.876,1623.91C762.19,1623.99 762.485,1624.06 762.799,1624.14ZM761.86,1623.91C761.757,1623.88 761.648,1623.85 761.545,1623.83C761.645,1623.85 761.76,1623.88 761.86,1623.91ZM761.504,1623.82C692.374,1606.38 632.595,1579.76 586.735,1542.56C586.74,1542.56 586.752,1542.57 586.757,1542.57C632.618,1579.77 692.374,1606.38 761.504,1623.82ZM1511.76,1330.21L1511.76,1330.13L1511.76,1330.21ZM1511.76,1329.91L1511.76,1329.81L1511.76,1329.91ZM1511.76,1329.55L1511.76,1329.53L1511.76,1329.55ZM1511.76,1329.23L1511.76,1329.14L1511.76,1329.23ZM1511.76,1328.94L1511.76,1328.84L1511.76,1328.94ZM1511.76,1328.6L1511.76,1328.55L1511.76,1328.6ZM1511.76,1328.25L1511.76,1328.18L1511.76,1328.25ZM1511.76,1327.96C1511.76,1327.92 1511.76,1327.9 1511.75,1327.86C1511.76,1327.88 1511.76,1327.94 1511.76,1327.96ZM1511.75,1327.65L1511.75,1327.57L1511.75,1327.65ZM1511.75,1327.28L1511.75,1327.21L1511.75,1327.28ZM1511.75,1326.98L1511.75,1326.89L1511.75,1326.98ZM1511.75,1326.67L1511.75,1326.6L1511.75,1326.67ZM1511.74,1326.3L1511.74,1326.28L1511.74,1326.3ZM1511.74,1326L1511.74,1325.92L1511.74,1326ZM1511.74,1325.69L1511.74,1325.62L1511.74,1325.69ZM1511.73,1325.34L1511.73,1325.3L1511.73,1325.34ZM1511.73,1325.03L1511.73,1324.94L1511.73,1325.03ZM1511.72,1324.73L1511.72,1324.64L1511.72,1324.73ZM1511.72,1324.38L1511.72,1324.35L1511.72,1324.38ZM1511.72,1324.06C1511.71,1324.04 1511.71,1324 1511.71,1323.98C1511.71,1324 1511.71,1324.03 1511.72,1324.06ZM1511.71,1323.76L1511.71,1323.67L1511.71,1323.76ZM1511.71,1323.44C1511.71,1323.42 1511.7,1323.39 1511.7,1323.37C1511.7,1323.39 1511.71,1323.43 1511.71,1323.44ZM1511.7,1323.08L1511.7,1323.02L1511.7,1323.08ZM1511.69,1322.78L1511.69,1322.7L1511.69,1322.78ZM1511.69,1322.45L1511.69,1322.41L1511.69,1322.45ZM1511.68,1322.1L1511.68,1322.07L1511.68,1322.1ZM1511.68,1321.81C1511.68,1321.79 1511.68,1321.76 1511.67,1321.74C1511.68,1321.76 1511.68,1321.78 1511.68,1321.81ZM1511.67,1321.5L1511.67,1321.43L1511.67,1321.5ZM1511.66,1320.84C1511.66,1320.82 1511.65,1320.79 1511.65,1320.77C1511.65,1320.79 1511.66,1320.81 1511.66,1320.84ZM1511.65,1320.52L1511.65,1320.47L1511.65,1320.52ZM1511.63,1319.86L1511.63,1319.81L1511.63,1319.86ZM1511.63,1319.55C1511.63,1319.53 1511.62,1319.51 1511.62,1319.49C1511.62,1319.52 1511.62,1319.53 1511.63,1319.55ZM1511.61,1318.89L1511.61,1318.84L1511.61,1318.89ZM1511.6,1318.58L1511.6,1318.53L1511.6,1318.58ZM1511.59,1318.24C1511.59,1318.22 1511.59,1318.25 1511.59,1318.23L1511.59,1318.24ZM1511.58,1317.92L1511.58,1317.9L1511.58,1317.92ZM1511.57,1317.62L1511.57,1317.56L1511.57,1317.62ZM1511.56,1317.29L1511.56,1317.26L1511.56,1317.29ZM1511.55,1316.95C1511.55,1316.93 1511.55,1316.96 1511.55,1316.94L1511.55,1316.95ZM1511.54,1316.64L1511.54,1316.61L1511.54,1316.64ZM1511.53,1316.32L1511.53,1316.3L1511.53,1316.32ZM1511.51,1315.68L1511.51,1315.64L1511.51,1315.68ZM1511.5,1315.36L1511.5,1315.33L1511.5,1315.36ZM1511.47,1314.38C1511.46,1314.36 1511.47,1314.4 1511.46,1314.37L1511.47,1314.38ZM1511.44,1313.74L1511.44,1313.73L1511.44,1313.74ZM1511.43,1313.43L1511.43,1313.41L1511.43,1313.43ZM1511.39,1312.47L1511.39,1312.44L1511.39,1312.47ZM1511.35,1311.5L1511.35,1311.49L1511.35,1311.5ZM1511.34,1311.18L1511.33,1311.17L1511.34,1311.18ZM1511.31,1310.54L1511.31,1310.52L1511.31,1310.54ZM1511.29,1310.22L1511.29,1310.21L1511.29,1310.22ZM1511.26,1309.58L1511.26,1309.57L1511.26,1309.58ZM1511.25,1309.26C1511.25,1309.24 1511.25,1309.27 1511.25,1309.25L1511.25,1309.26ZM1314.37,897.84C1284.5,860.922 1254.69,825.817 1227.74,792.294C1227.73,792.286 1227.72,792.274 1227.72,792.266C1254.68,825.799 1284.49,860.909 1314.37,897.84Z" style="fill:rgb(236,211,161);fill-rule:nonzero;"/>
            <path d="M999.992,1650L996.427,1650C996.324,1649.99 996.221,1649.99 996.118,1649.99L993.948,1649.99C993.835,1649.99 993.719,1649.99 993.606,1649.98L991.948,1649.98C991.834,1649.98 991.736,1649.97 991.622,1649.97L990.542,1649.97C990.232,1649.96 989.913,1649.96 989.604,1649.96L989.14,1649.96C989.088,1649.96 989.056,1649.96 989.004,1649.95L988.068,1649.95C987.759,1649.94 987.429,1649.94 987.12,1649.94L987.057,1649.94C986.913,1649.94 986.787,1649.93 986.643,1649.93L986.074,1649.93C985.93,1649.93 985.799,1649.92 985.655,1649.92L985.609,1649.92C985.29,1649.92 984.97,1649.92 984.651,1649.91L984.064,1649.91C983.941,1649.9 983.825,1649.9 983.702,1649.9L983.612,1649.9C983.469,1649.9 983.326,1649.9 983.182,1649.89L983.143,1649.89C982.814,1649.89 982.503,1649.89 982.174,1649.88L982.144,1649.88C982.001,1649.88 981.836,1649.88 981.692,1649.87L981.162,1649.87C980.68,1649.86 980.185,1649.85 979.703,1649.85L979.698,1649.85C979.533,1649.84 979.384,1649.84 979.22,1649.84L979.195,1649.84C979.031,1649.84 978.89,1649.83 978.725,1649.83L978.711,1649.83C978.054,1649.82 977.418,1649.81 976.762,1649.8L976.73,1649.8C976.576,1649.79 976.424,1649.79 976.271,1649.79L976.249,1649.79C900.695,1648.43 829.428,1640.49 765.884,1624.91C765.87,1624.9 765.868,1624.9 765.854,1624.9C765.742,1624.87 765.612,1624.84 765.5,1624.81C765.471,1624.81 765.45,1624.8 765.421,1624.79C765.318,1624.77 765.21,1624.74 765.106,1624.72C765.078,1624.71 765.047,1624.7 765.018,1624.69C764.906,1624.67 764.809,1624.64 764.698,1624.62C764.669,1624.61 764.651,1624.6 764.622,1624.6C764.493,1624.56 764.37,1624.53 764.241,1624.5C764.212,1624.5 764.157,1624.48 764.128,1624.47C764.042,1624.45 763.956,1624.43 763.87,1624.41C763.812,1624.4 763.749,1624.38 763.692,1624.37C763.632,1624.35 763.558,1624.33 763.498,1624.32C763.427,1624.3 763.369,1624.29 763.298,1624.27C763.246,1624.26 763.189,1624.24 763.137,1624.23C763.052,1624.21 762.998,1624.19 762.912,1624.17C762.878,1624.16 762.834,1624.15 762.799,1624.14C762.485,1624.06 762.19,1623.99 761.876,1623.91L761.86,1623.91C761.76,1623.88 761.645,1623.85 761.545,1623.83C761.528,1623.82 761.521,1623.82 761.504,1623.82C692.374,1606.38 632.618,1579.77 586.757,1542.57C670.301,1576.36 772.45,1591.45 882.733,1591.45C1165.38,1591.45 1394.5,1492.32 1394.5,1233.62C1394.5,1063.29 1315.01,918.521 1227.74,792.294C1254.69,825.817 1284.5,860.922 1314.37,897.84C1408.6,1014.32 1503.44,1148.91 1511.25,1309.25C1511.25,1309.27 1511.25,1309.24 1511.25,1309.26C1511.25,1309.37 1511.26,1309.47 1511.26,1309.57L1511.26,1309.58C1511.27,1309.79 1511.28,1310 1511.29,1310.21L1511.29,1310.22C1511.3,1310.32 1511.3,1310.42 1511.31,1310.52L1511.31,1310.54C1511.32,1310.76 1511.33,1310.96 1511.33,1311.17L1511.34,1311.18C1511.34,1311.28 1511.34,1311.38 1511.35,1311.49L1511.35,1311.5C1511.36,1311.82 1511.38,1312.12 1511.39,1312.44L1511.39,1312.47C1511.4,1312.79 1511.42,1313.09 1511.43,1313.41L1511.43,1313.43C1511.43,1313.53 1511.44,1313.63 1511.44,1313.73L1511.44,1313.74C1511.45,1313.95 1511.46,1314.16 1511.46,1314.37C1511.47,1314.4 1511.46,1314.36 1511.47,1314.38C1511.48,1314.71 1511.49,1315.01 1511.5,1315.33L1511.5,1315.36C1511.5,1315.45 1511.51,1315.55 1511.51,1315.64L1511.51,1315.68C1511.52,1315.89 1511.52,1316.08 1511.53,1316.3L1511.53,1316.32C1511.54,1316.43 1511.54,1316.5 1511.54,1316.61L1511.54,1316.64C1511.55,1316.75 1511.55,1316.83 1511.55,1316.94C1511.55,1316.96 1511.55,1316.93 1511.55,1316.95C1511.56,1317.06 1511.56,1317.16 1511.56,1317.26L1511.56,1317.29C1511.57,1317.38 1511.57,1317.46 1511.57,1317.56L1511.57,1317.62C1511.58,1317.72 1511.58,1317.8 1511.58,1317.9L1511.58,1317.92C1511.58,1318.02 1511.59,1318.12 1511.59,1318.23C1511.59,1318.25 1511.59,1318.22 1511.59,1318.24C1511.59,1318.34 1511.6,1318.44 1511.6,1318.53L1511.6,1318.58C1511.6,1318.66 1511.6,1318.76 1511.61,1318.84L1511.61,1318.89C1511.61,1319.09 1511.62,1319.29 1511.62,1319.49C1511.62,1319.51 1511.63,1319.53 1511.63,1319.55L1511.63,1319.86C1511.64,1320.08 1511.64,1320.25 1511.65,1320.47L1511.65,1320.77C1511.65,1320.79 1511.66,1320.82 1511.66,1320.84C1511.66,1321.03 1511.66,1321.24 1511.67,1321.43L1511.67,1321.74C1511.68,1321.76 1511.68,1321.79 1511.68,1321.81L1511.68,1322.07L1511.68,1322.1C1511.68,1322.21 1511.69,1322.3 1511.69,1322.41L1511.69,1322.78C1511.7,1322.86 1511.7,1322.93 1511.7,1323.02L1511.7,1323.08L1511.7,1323.37C1511.7,1323.39 1511.71,1323.42 1511.71,1323.44L1511.71,1323.98C1511.71,1324 1511.71,1324.04 1511.72,1324.06L1511.72,1324.35L1511.72,1324.38L1511.72,1324.73C1511.73,1324.81 1511.73,1324.86 1511.73,1324.94L1511.73,1325.34C1511.73,1325.44 1511.73,1325.53 1511.74,1325.62L1511.74,1326.3C1511.74,1326.39 1511.74,1326.5 1511.75,1326.6L1511.75,1327.86C1511.76,1327.9 1511.76,1327.92 1511.76,1327.96L1511.76,1328.18L1511.76,1328.25L1511.76,1329.53L1511.76,1329.55L1511.76,1330.5C1511.76,1561.49 1282.63,1650 999.992,1650Z" style="fill:rgb(216,160,66);fill-rule:nonzero;"/>
            <path d="M1200.16,391.354L1200.08,391.451C1199.45,392.168 1198.81,392.885 1198.18,393.634C1173.01,420.311 1076.14,449.186 1007.99,418.666C1002.09,416.027 996.344,413.324 990.725,410.588C1021.78,396.729 1050.61,386.289 1076.39,378.781C1127.33,363.961 1166.45,360.671 1187.62,365.395C1205,369.286 1210.29,378.57 1200.16,391.354Z" style="fill:rgb(233,193,104);fill-rule:nonzero;"/>
            <path d="M1075.57,431.763L1075.56,431.763C1052.44,431.762 1029.13,428.034 1008.45,418.87C1008.29,418.802 1008.14,418.735 1007.99,418.666C1002.09,416.027 996.344,413.324 990.725,410.588C1021.78,396.729 1050.61,386.289 1076.39,378.781C1113.18,368.079 1143.81,363.389 1165.96,363.389C1174.48,363.389 1181.74,364.082 1187.62,365.395C1199.06,367.956 1205.26,372.854 1205.28,379.548C1205.29,383.024 1203.63,386.984 1200.16,391.354L1200.08,391.451C1199.45,392.168 1198.81,392.885 1198.18,393.634C1180.69,412.168 1128.6,431.763 1075.57,431.763Z" style="fill:rgb(202,132,34);fill-rule:nonzero;"/>
            <path d="M871.997,631.198C865.768,631.198 860.68,626.188 860.601,619.941C860.522,613.645 865.562,608.477 871.857,608.398C909.143,607.93 946.868,605.848 983.982,602.208C1030.61,597.637 1077.58,590.484 1123.58,580.948C1129.75,579.672 1135.78,583.633 1137.05,589.797C1138.33,595.963 1134.37,601.996 1128.21,603.275C1081.42,612.974 1033.64,620.25 986.208,624.9C948.451,628.602 910.074,630.721 872.144,631.197L871.997,631.198Z" style="fill:rgb(51,51,51);fill-rule:nonzero;"/>
            <path d="M871.997,612.786C865.768,612.786 860.68,607.775 860.601,601.528C860.522,595.233 865.562,590.064 871.857,589.986C909.141,589.518 946.866,587.436 983.982,583.797C1030.61,579.226 1077.58,572.073 1123.58,562.536C1129.75,561.26 1135.78,565.221 1137.05,571.385C1138.33,577.55 1134.37,583.583 1128.21,584.862C1081.41,594.563 1033.64,601.838 986.208,606.489C948.448,610.19 910.072,612.308 872.144,612.785L871.997,612.786Z" style="fill:rgb(51,51,51);fill-rule:nonzero;"/>
            <path d="M871.997,594.373C865.768,594.373 860.68,589.363 860.601,583.116C860.522,576.82 865.562,571.652 871.857,571.574C909.141,571.106 946.866,569.023 983.982,565.384C1030.62,560.813 1077.58,553.66 1123.58,544.124C1129.75,542.846 1135.78,546.807 1137.05,552.973C1138.33,559.137 1134.37,565.171 1128.21,566.45C1081.42,576.149 1033.65,583.425 986.208,588.077C948.448,591.777 910.072,593.896 872.144,594.372L871.997,594.373Z" style="fill:rgb(51,51,51);fill-rule:nonzero;"/>
            <path d="M1044.26,695.123C1039.56,695.124 1035.26,691.964 1034.02,687.2C1019.29,630.582 1064.83,598.562 1066.78,597.226C1071.6,593.919 1078.19,595.144 1081.5,599.964C1084.8,604.775 1083.58,611.347 1078.79,614.662C1077.25,615.743 1043.6,639.914 1054.51,681.869C1055.99,687.527 1052.59,693.307 1046.93,694.779C1046.04,695.011 1045.14,695.123 1044.26,695.123Z" style="fill:rgb(51,51,51);fill-rule:nonzero;"/>
            <path d="M1121.6,743.979C1116.2,743.979 1111.59,739.864 1111.08,734.377C1102.22,639.705 1066.92,599.639 1066.57,599.245C1062.66,594.921 1062.97,588.235 1067.27,584.309C1071.58,580.384 1078.23,580.653 1082.17,584.941C1083.82,586.727 1122.57,629.87 1132.16,732.407C1132.7,738.228 1128.42,743.388 1122.6,743.932C1122.27,743.964 1121.93,743.979 1121.6,743.979Z" style="fill:rgb(51,51,51);fill-rule:nonzero;"/>
            <path d="M1022.85,1384.41L1022.85,1303.9C1046.41,1314.47 1060.73,1324.31 1060.73,1344.96C1060.73,1365.36 1048.2,1379.5 1022.85,1384.41ZM955.03,1148.01C955.03,1133.08 963.221,1121.88 977.146,1115.46L977.146,1179.47C963.44,1171.58 955.03,1162.33 955.03,1148.01ZM1159.86,1337.08C1159.86,1276.68 1127.03,1241.89 1075.17,1220.88L1022.85,1199.45L1022.85,1109.96C1050.88,1112.8 1074.35,1124.65 1098.8,1143.42L1147.38,1082.36C1113.92,1048.91 1067.96,1029.59 1022.85,1026.39L1022.85,982.068L977.146,982.068L977.146,1028.54C905.795,1040.43 857.213,1091.34 857.213,1153.26C857.213,1215.63 899.229,1252.39 943.87,1270.12L977.146,1284.38L977.146,1383.76C948.642,1377.84 919.499,1362.16 895.946,1341.68L840.145,1407.98C878.417,1443.4 928.12,1463.89 977.146,1468.62L977.146,1513.53L1022.85,1513.53L1022.85,1468.5C1109.94,1459.64 1159.86,1402.25 1159.86,1337.08Z" style="fill:rgb(51,51,51);fill-rule:nonzero;"/>
        </g>
    </g>
</svg>
