<svg width="240" height="171" viewBox="0 0 240 171" fill="none" xmlns="http://www.w3.org/2000/svg">
<path d="M72.7121 169.293L2.31081 128.607C-1.10883 126.63 -0.686523 123.179 3.26872 120.903L153.939 33.908C157.894 31.6317 163.868 31.3742 167.288 33.3518L237.689 74.0373C241.109 76.0149 240.687 79.4655 236.731 81.7418L86.0714 168.726C82.1161 171.003 76.1421 171.26 72.7224 169.283L72.7121 169.293Z" fill="#EDEFF2"/>
<path d="M234.064 48.0707L234.146 48.1737L167.536 9.67181C164.137 7.71479 158.204 7.95169 154.279 10.2177L5.05113 96.3782L0.0761719 94.483L1.47699 101.466C1.66239 102.517 2.3937 103.496 3.71212 104.258L72.4551 143.985C75.8542 145.942 81.787 145.706 85.7114 143.439L235.31 57.0627C237.154 56.0018 238.215 54.673 238.483 53.3649L239.914 46.5771L234.043 48.0707H234.064Z" fill="url(#paint0_radial_921_3037)"/>
<path d="M72.7121 137.836L2.31081 97.1508C-1.10883 95.1732 -0.686523 91.7226 3.26872 89.4463L153.939 2.46176C157.894 0.185429 163.868 -0.0720747 167.288 1.90555L237.689 42.591C241.109 44.5687 240.687 48.0192 236.731 50.2955L86.0714 137.28C82.1161 139.556 76.1421 139.814 72.7224 137.836H72.7121Z" fill="url(#paint1_radial_921_3037)"/>
<path d="M72.8045 133.294L7.94468 95.822C4.59714 93.8959 5.01944 90.5174 8.88198 88.2926L153.98 4.50111C157.842 2.27629 163.683 2.02908 167.02 3.96551L232.395 41.7464C235.742 43.6725 235.32 47.0509 231.457 49.2757L85.8342 132.769C81.9716 134.993 76.1315 135.241 72.7942 133.304L72.8045 133.294Z" fill="url(#paint2_radial_921_3037)"/>
<path d="M72.8045 133.294L7.94468 95.822C4.59714 93.8959 5.01944 90.5174 8.88198 88.2926L153.98 4.50111C157.842 2.27629 163.683 2.02908 167.02 3.96551L232.395 41.7464C235.742 43.6725 235.32 47.0509 231.457 49.2757L85.8342 132.769C81.9716 134.993 76.1315 135.241 72.7942 133.304L72.8045 133.294Z" fill="url(#paint3_linear_921_3037)"/>
<path d="M72.8045 133.294L7.94468 95.822C4.59714 93.8959 5.01944 90.5174 8.88198 88.2926L153.98 4.50111C157.842 2.27629 163.683 2.02908 167.02 3.96551L232.395 41.7464C235.742 43.6725 235.32 47.0509 231.457 49.2757L85.8342 132.769C81.9716 134.993 76.1315 135.241 72.7942 133.304L72.8045 133.294Z" fill="url(#paint4_linear_921_3037)"/>
<path d="M236.732 48.4723L86.0723 135.457C82.1171 137.733 76.143 137.991 72.7234 136.013L2.32206 95.3276C1.15815 94.6581 0.468038 93.8032 0.189935 92.8968C-0.263271 94.4727 0.395937 96.0486 2.32206 97.161L72.7234 137.846C76.143 139.824 82.1171 139.577 86.0723 137.29L236.732 50.3058C239.338 48.8019 240.378 46.7934 239.822 45.0321C239.472 46.2578 238.463 47.4835 236.732 48.4723Z" fill="url(#paint5_linear_921_3037)"/>
<path d="M92.0865 17.7265L112.481 5.57233L139.673 22.5778L140.93 26.0284C140.93 26.0284 135.378 28.5107 133.493 28.9639C131.608 29.4171 103.149 32.6616 101.171 30.3338C99.1936 28.006 93.2401 21.6096 93.2401 21.6096L92.0762 17.7265H92.0865Z" fill="#FF73B5"/>
<path d="M93.6509 20.25C96.5762 18.4372 112.48 9.67175 112.48 9.67175L142.164 28.109L114.426 44.5068L99.7692 35.3603L93.6406 20.25H93.6509Z" fill="#C6307F"/>
<path d="M128.878 75.5514L113.799 84.255V46.9274L128.878 38.2238V75.5514Z" fill="#C6307F"/>
<path d="M113.798 46.2681V84.255L98.7188 75.5514V38.2238L113.798 46.2681Z" fill="#EF529C"/>
<path d="M113.799 40.4073V42.4674C113.511 42.6322 113.232 42.797 112.944 42.9618C112.347 42.6219 111.76 42.2717 111.162 41.9318L113.799 40.4073Z" fill="#C6307F"/>
<path d="M104.826 38.2649C97.7601 34.1861 90.6943 30.1072 83.6387 26.0284C87.3158 23.9066 90.9827 21.7847 94.6598 19.6629C94.6804 19.6629 95.1851 20.7238 104.826 38.2649Z" fill="#C6307F"/>
<path d="M98.7195 38.2237V75.5514L92.6836 72.07V34.7423L98.7195 38.2237Z" fill="#FBE76C"/>
<path d="M92.6829 34.7423V72.0699L77.6035 63.3663V26.0387L92.6829 34.7423Z" fill="#EF529C"/>
<path d="M135.089 41.7257C150.138 54.9408 149.993 54.8069 149.993 54.8275V63.3663L134.914 72.0699V41.0459L135.089 41.7257Z" fill="#C6307F"/>
<path d="M134.903 72.0698L128.867 75.5513V38.2236L133.482 35.5559L134.893 41.0356V72.0595L134.903 72.0698Z" fill="#F7B23B"/>
<path d="M132.936 32.5278L133.719 35.556C127.137 39.3361 131.483 36.8435 113.942 46.9273C81.0026 27.9854 110.935 45.1969 77.6035 26.0284C94.0837 16.5523 93.2906 16.9952 93.3112 17.0364C93.7232 17.8089 94.197 18.6844 94.7326 19.6732C94.7017 19.6732 83.6909 26.0181 83.6703 26.0387C116.26 44.7849 110.502 41.4683 113.953 43.4562C116.909 41.7567 105.228 48.4723 132.946 32.5381L132.936 32.5278Z" fill="#FF73B5"/>
<g style="mix-blend-mode:multiply">
<path d="M113.449 84.255L133.143 83.6267L147.213 76.0561L173.138 75.469L182.429 74.0991L189.629 69.9379L178.979 53.2311L149.644 54.8173L113.449 84.255Z" fill="#BAB4CB"/>
</g>
<path d="M155.441 32.2497C140.795 19.3848 140.928 19.5084 140.928 19.4981L139.672 14.6262C144.255 18.6535 149.076 22.8972 153.659 26.9245C153.649 27.0275 153.629 27.1305 153.608 27.2438C153.587 27.388 153.515 27.5219 153.526 27.6764C153.67 29.9836 154.545 31.4051 155.441 32.26V32.2497Z" fill="#F7B23B"/>
<path d="M153.66 26.9142C149.076 22.8869 144.245 18.6432 139.672 14.6159L135.902 0C136.263 0.319304 151.579 13.7713 151.909 14.0597C151.909 14.1627 151.651 15.8622 151.991 19.1994C150.724 18.1488 149.426 17.3248 148.345 16.5214C148.252 15.8107 147.912 14.8631 147.366 13.8846C146.161 11.7318 144.585 10.5679 144.318 11.7112C144.318 11.7318 144.194 12.185 144.163 12.8133C144.05 15.2236 145.42 18.0458 146.944 19.9307C149.107 22.5779 151.837 23.6491 153.732 25.5443C153.773 25.9872 153.742 26.461 153.68 26.9039L153.66 26.9142Z" fill="#C6307F"/>
<path d="M144.297 11.7318C144.339 11.5464 144.421 11.4125 144.545 11.3404C145.121 11.0211 146.368 12.1747 147.346 13.9051C147.892 14.8837 148.232 15.8313 148.325 16.542C148.376 16.9025 148.387 17.4587 148.067 17.6338C147.501 17.9531 146.244 16.7995 145.266 15.0691C144.503 13.7094 144.143 12.391 144.287 11.7318H144.297Z" fill="#F7B23B"/>
<path d="M139.673 14.6158L140.93 19.4878L131.464 26.4816L130.311 21.6199C130.311 21.6199 137.83 16.0785 139.663 14.6261L139.673 14.6158Z" fill="#FBE76C"/>
<path d="M144.688 34.0522C144.688 34.0522 144.688 34.114 144.668 34.1243L135.171 41.6434C135.171 41.6434 135.068 41.6434 135.058 41.6022C132.163 30.3956 131.535 26.7082 131.463 26.4713C131.463 26.4507 140.929 19.4878 140.929 19.4878C140.929 19.4878 141.66 22.3203 144.688 34.0522Z" fill="#FF73B5"/>
<path d="M135.893 0.0103149L139.663 14.6262C137.83 16.0785 132.144 20.1677 130.31 21.62C130.28 21.62 126.891 7.2101 126.891 7.2101C126.891 7.2101 126.86 7.1895 126.85 7.1792L135.893 0.0103149Z" fill="#FF73B5"/>
<path d="M183.283 41.2417C183.283 41.2417 183.571 41.6331 183.86 42.4056C184.344 43.7137 184.365 45.0425 183.922 45.5781C183.489 46.0931 182.747 45.7429 182.109 44.7644C182.109 44.7644 182.099 44.7438 182.088 44.7335C181.017 43.0957 179.431 41.8597 177.721 40.9636C178.36 38.9963 178.112 37.0805 176.887 35.3604C179.585 36.7921 181.676 38.7594 183.293 41.2417H183.283Z" fill="#F7B23B"/>
<path d="M175.796 43.8373C176.218 43.5077 176.445 43.2296 176.671 42.9515L178.072 48.3694C176.702 47.1643 175.332 45.9695 173.973 44.7644C174.694 44.5687 175.291 44.2494 175.806 43.8477L175.796 43.8373Z" fill="#C6307F"/>
<path d="M172.498 39.0374C169.707 38.3164 165.113 37.5954 163.373 37.1113C162.734 36.4624 161.519 35.1234 161.096 34.3715C161.096 34.3715 160.973 34.0934 160.973 34.0831C160.973 34.0625 160.973 34.0522 160.973 34.0419L161.168 34.0213C162.24 33.7844 166.03 33.9492 167.112 34.0213C168.502 34.114 170.099 34.2891 171.458 34.6496C172.086 34.8144 172.282 34.9174 172.437 34.9792C172.437 34.9792 172.447 34.9792 172.457 34.9792C172.715 35.2676 172.88 35.7723 172.952 36.1843C173.106 37.1422 172.9 38.1619 172.509 39.0271L172.498 39.0374Z" fill="#F7B23B"/>
<path d="M172.499 39.0374C172.118 39.8717 171.531 40.6339 170.707 41.0768C170.501 41.1798 170.275 41.2725 170.048 41.324C165.846 37.6263 165.887 37.6881 165.887 37.6675C168.091 38.1104 170.305 38.4709 172.489 39.0374H172.499Z" fill="#C6307F"/>
<path d="M173.962 44.7541C175.331 45.9592 176.701 47.154 178.061 48.3591L179.318 53.2311C168.801 43.9919 169.265 44.4142 169.275 44.3936C170.779 44.8983 172.437 45.1558 173.962 44.7541Z" fill="#F7B23B"/>
<path d="M179.328 53.231L183.098 67.8469L166.638 53.3855C165.567 49.2655 164.506 45.1351 163.445 41.0151C163.445 40.9945 164.692 42.0554 166.412 43.0545C167.555 43.724 168.709 44.2184 169.255 44.3832C169.255 44.3832 169.265 44.3832 169.275 44.3832C169.275 44.4141 168.657 43.8476 179.318 53.2207L179.328 53.231Z" fill="#C6307F"/>
<path d="M170.048 41.3138C169.43 41.4683 168.863 41.3756 168.338 41.1078C166.762 40.3147 164.63 38.3988 163.373 37.1113C163.95 37.2761 165.794 37.6469 165.897 37.6675C165.897 37.6881 165.845 37.616 170.058 41.3241L170.048 41.3138Z" fill="#F7B23B"/>
<path d="M157.502 24.3907C158.553 21.3934 161.046 14.07 160.005 11.0726C159.871 11.1138 159.727 11.1756 159.573 11.2477C157.976 12.0512 157.265 14.07 157.008 15.8416C156.637 18.396 157.049 21.8466 157.502 24.401V24.3907ZM153.64 20.7857C153.114 20.2192 152.579 19.7144 151.981 19.2097C151.817 17.5617 151.724 15.7283 151.899 14.07C151.899 14.07 151.899 14.0597 151.899 14.0391C152.033 12.6795 152.445 11.1344 153.166 9.96023C154.865 7.23069 157.925 6.78779 160.84 8.13711C162.838 9.05382 164.496 10.6606 165.052 12.8031C165.402 14.0803 165.351 15.5017 165.186 16.8201C164.712 20.5591 163.013 25.5649 161.674 29.1082C161.478 29.6026 161.427 29.7571 161.2 30.3133C161.19 30.3442 161.272 30.3133 160.139 30.3236C159.387 30.3236 158.574 30.3339 157.832 30.4575C157.77 26.9657 155.968 23.2989 153.64 20.7754V20.7857Z" fill="#F7B23B"/>
<path d="M163.415 24.1847C173.293 32.8677 172.345 32.0128 172.263 31.9922C170.193 31.1785 168.04 30.7974 165.774 30.5708C164.064 30.406 162.076 30.3442 161.211 30.3442C161.273 30.2515 161.88 28.6137 161.922 28.5107C163.302 24.7203 163.312 24.4319 163.415 24.1847Z" fill="#C6307F"/>
<path d="M135.09 41.7259L144.71 34.1038C161.232 48.6269 161.17 48.5445 161.17 48.5651C157.966 51.1093 154.763 53.6431 151.549 56.1872L150.004 54.8276C150.004 54.8276 150.2 55.0027 135.1 41.7259H135.09Z" fill="#EF529C"/>
<path d="M155.742 32.5072C156.339 33.0016 156.916 33.2488 157.225 33.3621C157.225 33.3827 161.139 48.5342 161.149 48.5548L144.69 34.0934L140.92 19.4775C145.761 23.7315 150.602 27.9854 155.433 32.2291C155.484 32.2806 155.608 32.3939 155.732 32.4969L155.742 32.5072Z" fill="#C6307F"/>
<path d="M161.52 33.9595C161.138 34.011 161.386 33.9904 160.974 34.0419C160.974 34.0625 160.974 34.0625 160.974 34.0831C160.974 34.0831 161.066 34.2994 161.128 34.423C162.313 36.2976 165.876 39.7687 168.112 40.9945C168.472 41.1902 168.802 41.3344 169.193 41.3859C171.531 41.6434 173.334 38.5739 172.942 36.2049C172.87 35.7929 172.705 35.2882 172.448 34.9998C172.448 34.9998 172.458 34.9998 172.469 34.9998C172.469 34.9998 172.448 34.9895 172.438 34.9792C172.438 34.9792 172.438 34.9792 172.427 34.9792L172.448 34.9998C172.448 34.9998 172.438 34.9998 172.427 34.9998C172.273 34.938 172.108 34.8453 171.449 34.6702C170.089 34.32 168.503 34.1346 167.102 34.0419C165.763 33.9492 162.848 33.8462 161.52 33.9801V33.9595ZM158.975 32.4866C158.512 32.2703 158.09 32.1467 157.781 32.0437C157.781 32.0437 157.76 32.0437 157.75 32.0437C157.729 32.0437 157.853 31.4874 157.832 30.478C158.883 30.3132 160.253 30.3544 161.231 30.3544C164.579 30.3853 168.719 30.6737 171.861 31.8479C172.036 31.9097 172.283 32.0127 172.314 32.023C172.602 32.1363 173.169 32.3939 173.735 32.6926C174.951 33.3621 176.053 34.2376 176.877 35.3603C176.877 35.3603 176.908 35.4015 176.918 35.4221C178.113 37.1319 178.371 39.0786 177.67 41.0975C177.32 42.1584 176.65 42.9618 176.64 42.9824C174.827 45.2484 172.036 45.3308 169.276 44.3935C169.276 44.3935 169.265 44.3935 169.255 44.3935C169.234 44.3729 168.318 44.1257 166.814 43.2914C164.393 41.973 161.829 39.779 159.882 37.822L157.492 33.4548C157.533 33.4033 158.12 32.5381 158.975 32.4969V32.4866Z" fill="#FBE76C"/>
<path d="M158.872 20.2088C158.738 20.6723 158.645 20.9813 158.439 21.6199C158.244 20.8474 158.037 20.0646 157.842 19.2921C158.954 20.2706 158.882 20.1882 158.882 20.2088H158.872Z" fill="#6D89C7"/>
<path d="M157.831 19.2819C158.027 20.0544 158.233 20.8372 158.429 21.6097C158.099 22.65 157.821 23.4534 157.492 24.3804C157.193 22.6603 156.863 20.178 156.863 18.4269L157.831 19.2716V19.2819Z" fill="#F7B23B"/>
<path d="M158.975 32.4865C158.12 32.5277 157.533 33.3929 157.492 33.4444C157.595 33.0015 157.698 32.4865 157.75 32.0333C157.863 32.0642 158.512 32.2702 158.975 32.4762V32.4865Z" fill="#F7B23B"/>
<path d="M157.492 33.4548L159.882 37.8221C161.159 39.1096 162.488 40.2735 163.446 41.0151C163.446 41.0357 166.639 53.365 166.639 53.3856C161.087 48.5136 161.149 48.5857 161.149 48.5651C159.944 43.9198 158.419 38.0178 157.225 33.3724C157.389 33.4342 157.482 33.4548 157.482 33.4548H157.492Z" fill="#F7B23B"/>
<path d="M148.325 16.542C148.325 16.542 148.284 16.5317 149.376 17.2939C150.941 18.3857 152.332 19.3745 153.64 20.796C155.916 23.268 157.678 26.8215 157.822 30.1691C157.914 31.8583 157.482 33.4445 157.482 33.4651C157.482 33.4651 157.389 33.4445 157.224 33.3827C157.224 33.3621 156.565 33.2076 155.741 32.5175C155.7 32.4866 155.453 32.2703 155.442 32.2497C154.546 31.3948 153.671 29.9837 153.527 27.6661C153.527 27.5219 153.588 27.388 153.609 27.2335C153.702 26.6773 153.753 26.1314 153.702 25.5546C151.178 23.0311 147.068 21.929 144.864 16.4699C144.256 14.9661 143.906 13.3593 144.277 11.7628C144.277 11.7525 144.277 11.7422 144.277 11.7216C144.123 12.3808 144.493 13.6992 145.256 15.0588C146.234 16.7995 147.48 17.9428 148.057 17.6235C148.377 17.4484 148.356 16.8922 148.315 16.5317L148.325 16.542Z" fill="#FBE76C"/>
<path d="M183.097 67.8469L173.487 75.469L157.027 61.0076C160.231 58.4635 163.434 55.9296 166.637 53.3855L183.097 67.8469Z" fill="#EF529C"/>
<path d="M161.157 48.5652L166.647 53.3856C163.444 55.9298 160.24 58.4636 157.037 61.0077C157.016 61.0077 157.078 61.0386 151.547 56.1873C154.75 53.6431 157.954 51.1093 161.167 48.5652H161.157Z" fill="#F7B23B"/>
<g style="mix-blend-mode:multiply" opacity="0.68">
<path d="M107.62 97.9645C102.316 105.226 91.0061 105.999 82.354 99.6846C73.7019 93.3707 70.9826 82.3598 76.2872 75.0982C81.5918 67.8367 92.9013 67.0641 101.553 73.3781C110.206 79.6921 112.925 90.7029 107.62 97.9645Z" fill="#BAB4CB"/>
</g>
<g style="mix-blend-mode:multiply" opacity="0.68">
<path d="M93.9737 80.7838C88.6691 88.0454 77.3596 88.8179 68.7075 82.504C60.0554 76.19 57.3361 65.1792 62.6407 57.9176C67.9453 50.656 79.2548 49.8835 87.9069 56.1974C96.559 62.5114 99.2782 73.5222 93.9737 80.7838Z" fill="#BAB4CB"/>
</g>
<path d="M77.6987 95.3689C73.383 87.9735 75.8756 78.487 83.2711 74.1816C86.6804 72.1937 90.5327 71.6581 94.1274 72.3791C90.0692 71.0504 85.4856 71.4006 81.4995 73.7181C74.1143 78.0338 71.6114 87.5203 75.9271 94.9054C78.2549 98.8813 82.0763 101.446 86.2581 102.28C82.7767 101.147 79.6866 98.7783 77.6884 95.3689H77.6987Z" fill="#C27A1D"/>
<path d="M96.506 101.745C96.2382 101.899 95.9807 102.043 95.7129 102.177C95.4863 102.291 95.27 102.404 95.0434 102.497C94.549 102.723 94.0546 102.919 93.5396 103.094C93.3027 103.176 93.0658 103.259 92.8186 103.321C91.8091 103.609 90.7894 103.794 89.7697 103.877C89.5019 103.908 89.2135 103.928 88.9457 103.928C88.2968 103.949 87.6479 103.928 86.999 103.867C86.7003 103.846 86.3913 103.815 86.0823 103.764C85.3716 103.671 84.6609 103.516 83.9708 103.321C83.6103 103.218 83.26 103.104 82.9201 102.981C82.1064 102.692 81.3133 102.332 80.5614 101.909C80.0979 101.662 79.655 101.384 79.2224 101.085C77.3375 99.7877 75.7101 98.0675 74.4843 95.9663L72.6406 92.8145L100.43 76.5918C100.43 76.5918 100.976 77.5291 102.274 79.7436C103.603 82.02 104.303 84.5023 104.437 86.964C104.468 87.4584 104.478 87.9528 104.447 88.4472C104.417 89.3227 104.314 90.2086 104.128 91.0635C104.066 91.4137 103.974 91.7536 103.881 92.1038C103.572 93.2471 103.129 94.3492 102.573 95.4101C102.439 95.6573 102.305 95.9045 102.161 96.1414C101.605 97.0684 100.945 97.9543 100.193 98.7577C100.018 98.9431 99.8432 99.1285 99.6578 99.3036C99.081 99.8701 98.4527 100.395 97.7832 100.879C97.5875 101.024 97.3918 101.168 97.1755 101.302C96.9489 101.446 96.712 101.59 96.4751 101.734L96.506 101.745Z" fill="#C88A1D"/>
<path d="M95.7148 102.177C95.4882 102.291 95.2719 102.404 95.0453 102.497L92.7793 98.6135L93.4179 98.2427L95.7148 102.177Z" fill="#A57213"/>
<path d="M93.5528 103.094C93.3159 103.176 93.079 103.259 92.8318 103.321L90.0508 98.5517L90.6894 98.1809L93.5528 103.094Z" fill="#A57213"/>
<path d="M89.7826 103.877C89.5148 103.908 89.2264 103.928 88.9586 103.928L86.2188 99.2315L86.8574 98.8607L89.7826 103.867V103.877Z" fill="#A57213"/>
<path d="M87.0115 103.877C86.7128 103.856 86.4038 103.825 86.0948 103.774L83.252 98.9019L83.8906 98.5311L87.0115 103.887V103.877Z" fill="#A57213"/>
<path d="M83.9957 103.321C83.6352 103.218 83.285 103.104 82.9451 102.981L80.2773 98.4178L80.9159 98.047L83.9957 103.321Z" fill="#A57213"/>
<path d="M80.5846 101.92C80.1211 101.673 79.6782 101.394 79.2456 101.096L76.959 97.1817L77.5976 96.8109L80.5846 101.93V101.92Z" fill="#A57213"/>
<path d="M97.2092 101.323L94.7578 97.1201L95.3964 96.7493L97.8169 100.9C97.6212 101.044 97.4255 101.189 97.2092 101.323Z" fill="#A57213"/>
<path d="M99.6821 99.3243L97.1895 95.06L97.8281 94.6892L100.218 98.7784C100.043 98.9638 99.8675 99.1492 99.6821 99.3243Z" fill="#A57213"/>
<path d="M102.184 96.1518L99.6914 91.8773L100.32 91.5065L102.606 95.4205C102.472 95.6677 102.339 95.9149 102.194 96.1518H102.184Z" fill="#A57213"/>
<path d="M103.906 92.1142L101.125 87.3555L101.764 86.9847L104.153 91.0842C104.091 91.4344 103.999 91.7743 103.906 92.1245V92.1142Z" fill="#A57213"/>
<path d="M104.47 88.4576L101.771 83.8431L102.41 83.4723L104.45 86.9743C104.48 87.4687 104.491 87.9632 104.46 88.4576H104.47Z" fill="#A57213"/>
<path d="M94.6637 98.5929C86.9901 103.073 77.1432 100.478 72.6627 92.8042C68.1821 85.1306 70.7777 75.2837 78.4513 70.8032C86.1249 66.3226 95.9718 68.9182 100.452 76.5918C104.933 84.2654 102.337 94.1123 94.6637 98.5929Z" fill="#FFCF1E"/>
<path d="M93.2841 96.2342C86.9186 99.9526 78.7403 97.7998 75.022 91.4344C71.3036 85.0689 73.4564 76.8906 79.8218 73.1722C86.1873 69.4539 94.3656 71.6066 98.0839 77.9721C101.802 84.3376 99.6496 92.5159 93.2841 96.2342Z" fill="#FDBB24"/>
<path d="M77.3384 90.2498L79.7281 88.849C78.9452 87.4585 78.5435 85.7899 78.6568 84.6156L80.5727 84.2551C80.5006 85.4397 80.7684 86.9332 81.5409 88.2619C82.5194 89.9408 84.1571 90.5176 85.5064 89.7245C86.8145 88.9623 87.072 87.5718 86.763 85.3985C86.2995 82.432 86.5158 80.2999 88.5862 79.0948C90.5535 77.9515 92.8607 78.4768 94.4881 80.4441L96.8778 79.0433L97.7327 80.5162L95.4357 81.8552C96.2186 83.3075 96.404 84.5023 96.404 85.419L94.4984 85.7384C94.4984 85.0792 94.4469 83.8019 93.5611 82.2775C92.5002 80.4544 91.0067 80.4029 90.0591 80.9591C88.8231 81.6801 88.7201 82.9161 89.0703 85.4706C89.5029 88.4885 88.9879 90.4455 86.8763 91.6712C85.0017 92.763 82.4885 92.4849 80.6654 90.2807L78.2036 91.7227L77.3281 90.2292L77.3384 90.2498Z" fill="#C88A1D"/>
<path d="M88.6084 73.3576C88.5363 73.6769 88.4642 73.9962 88.3715 74.3052C88.2994 74.5627 88.2273 74.8202 88.1346 75.0674C87.9492 75.6236 87.7432 76.1695 87.5063 76.6948C87.393 76.9523 87.2797 77.1892 87.1561 77.4364C86.6411 78.4458 86.0437 79.3934 85.3536 80.2586C85.1785 80.4956 84.9828 80.7325 84.7974 80.9488C84.3339 81.4844 83.8497 81.9788 83.3244 82.4423C83.0875 82.6689 82.83 82.8852 82.5622 83.0912C81.9648 83.5856 81.3262 84.0388 80.6567 84.4302C80.3168 84.6465 79.9666 84.8319 79.6164 85.0173C78.7821 85.4499 77.9272 85.8104 77.0414 86.0988C76.5058 86.2842 75.9598 86.4284 75.4036 86.552C72.9934 87.0876 70.439 87.1185 67.864 86.552L64.0117 85.6971L71.5823 51.7788C71.5823 51.7788 72.7256 52.0363 75.4346 52.6337C78.2156 53.2517 80.6876 54.5186 82.7373 56.2285C83.1493 56.5684 83.551 56.9289 83.9218 57.31C84.5914 57.9795 85.2094 58.7108 85.7553 59.4833C85.9819 59.7923 86.1982 60.1116 86.3939 60.4412C87.0634 61.5227 87.6196 62.6866 88.0419 63.9021C88.1346 64.1905 88.2376 64.4789 88.32 64.7673C88.6496 65.89 88.8556 67.0539 88.9483 68.2487C88.9689 68.5268 88.9895 68.7946 88.9895 69.0727C89.0204 69.9482 88.9792 70.8237 88.8556 71.7096C88.835 71.9774 88.7938 72.2349 88.7423 72.5027C88.6908 72.7911 88.629 73.0898 88.5672 73.3782L88.6084 73.3576Z" fill="#C88A1D"/>
<path d="M88.3695 74.2948C88.2974 74.5523 88.2253 74.8099 88.1326 75.0571L83.3945 73.9961L83.5696 73.2236L88.3695 74.2948Z" fill="#A57213"/>
<path d="M87.494 76.6845C87.3807 76.942 87.2674 77.179 87.1438 77.4262L81.3242 76.1283L81.4993 75.3558L87.494 76.6948V76.6845Z" fill="#A57213"/>
<path d="M85.3514 80.2483C85.1763 80.4852 84.9806 80.7221 84.7952 80.9384L79.0684 79.6612L79.2435 78.8887L85.3617 80.2483H85.3514Z" fill="#A57213"/>
<path d="M83.3245 82.4319C83.0876 82.6585 82.8301 82.8748 82.5623 83.0808L76.6191 81.7521L76.7942 80.9796L83.3245 82.4422V82.4319Z" fill="#A57213"/>
<path d="M80.6654 84.4199C80.3255 84.6362 79.9753 84.8216 79.6251 85.007L74.0527 83.7607L74.2278 82.9882L80.6654 84.4199Z" fill="#A57213"/>
<path d="M77.04 86.0884C76.5044 86.2738 75.9585 86.418 75.4023 86.5416L70.623 85.4704L70.7982 84.6979L77.04 86.0884Z" fill="#A57213"/>
<path d="M88.7818 72.482L83.6523 71.3387L83.8274 70.5662L88.8848 71.6992C88.8642 71.967 88.823 72.2245 88.7715 72.4923L88.7818 72.482Z" fill="#A57213"/>
<path d="M89.0185 69.0521L83.8066 67.8882L83.9817 67.1157L88.9773 68.2281C88.9979 68.5062 89.0185 68.774 89.0185 69.0521Z" fill="#A57213"/>
<path d="M88.3394 64.7466L83.1172 63.5827L83.2923 62.8102L88.0612 63.8711C88.154 64.1595 88.257 64.4479 88.3394 64.7363V64.7466Z" fill="#A57213"/>
<path d="M86.4128 60.4205L80.6035 59.1227L80.7786 58.3502L85.7742 59.4626C86.0008 59.7716 86.2171 60.0909 86.4128 60.4205Z" fill="#A57213"/>
<path d="M83.931 57.2894L78.2969 56.0328L78.472 55.2603L82.7465 56.2182C83.1585 56.5581 83.5602 56.9186 83.931 57.2997V57.2894Z" fill="#A57213"/>
<path d="M84.7548 72.4924C82.6638 81.8552 73.3834 87.7572 64.0206 85.6662C54.6578 83.5753 48.7558 74.2949 50.8468 64.9218C52.9377 55.5487 62.2181 49.6673 71.5809 51.7479C80.9437 53.8286 86.8457 63.1193 84.7548 72.4821V72.4924Z" fill="#FFCF1E"/>
<path d="M81.8802 71.8537C80.1498 79.6303 72.435 84.5229 64.6687 82.7821C56.8921 81.0517 51.9995 73.3369 53.7403 65.5707C55.481 57.8044 63.1855 52.9015 70.9518 54.6422C78.7283 56.3726 83.6209 64.0874 81.8802 71.8537Z" fill="#FDBB24"/>
<path d="M66.1012 81.8758C58.3246 80.1454 53.4321 72.4306 55.1728 64.6643C55.9762 61.0799 58.0465 58.1032 60.8069 56.1152C57.3358 58.0414 54.6681 61.3889 53.7308 65.581C52.0003 73.3576 56.8929 81.0621 64.6592 82.7926C68.841 83.7299 73.0126 82.7308 76.2365 80.4132C73.2598 82.0715 69.6857 82.6792 66.1012 81.8861V81.8758Z" fill="#C27A1D"/>
<path d="M65.4214 80.0834L66.0703 77.1582C64.4017 76.7565 62.7846 75.85 61.9297 74.9024L63.0524 73.1205C63.9382 74.0475 65.3184 74.9333 66.9355 75.2938C68.9853 75.7573 70.6436 74.8715 71.0144 73.2235C71.3852 71.5755 70.4582 70.4013 68.5115 69.052C65.8231 67.2391 64.2987 65.4984 64.8549 62.9852C65.4111 60.472 67.5021 59.1432 70.2625 59.3081L70.9114 56.3828L72.7036 56.7845L72.0753 59.5862C73.7954 60.0291 74.8769 60.7604 75.6083 61.4402L74.4546 63.1912C73.9293 62.7071 72.8787 61.811 71.0247 61.399C68.7999 60.9046 67.6566 62.0479 67.3991 63.2015C67.0592 64.7053 67.9656 65.6941 70.2522 67.3009C72.9611 69.1859 74.125 71.0193 73.5585 73.5943C73.0435 75.8809 70.9835 77.6629 67.8935 77.4878L67.2239 80.4954L65.4008 80.0937L65.4214 80.0834Z" fill="#C88A1D"/>
<defs>
<radialGradient id="paint0_radial_921_3037" cx="0" cy="0" r="1" gradientUnits="userSpaceOnUse" gradientTransform="translate(2.54821 60.9561) scale(235.389 235.389)">
<stop stop-color="#E39A65"/>
<stop offset="0.28" stop-color="#A92FFB"/>
<stop offset="0.33" stop-color="#881BFA"/>
<stop offset="0.4" stop-color="#6507FA"/>
<stop offset="0.54" stop-color="#0D0C6F"/>
</radialGradient>
<radialGradient id="paint1_radial_921_3037" cx="0" cy="0" r="1" gradientUnits="userSpaceOnUse" gradientTransform="translate(42.3886 -7.44696) scale(310.713 310.713)">
<stop stop-color="#E39A65"/>
<stop offset="0.41" stop-color="#A92FFB"/>
<stop offset="0.55" stop-color="#881BFA"/>
<stop offset="0.73" stop-color="#6507FA"/>
<stop offset="0.74" stop-color="#6308F8"/>
<stop offset="1" stop-color="#3919BB"/>
</radialGradient>
<radialGradient id="paint2_radial_921_3037" cx="0" cy="0" r="1" gradientUnits="userSpaceOnUse" gradientTransform="translate(54.46 0.690061) scale(195.187 195.187)">
<stop stop-color="#6507FA"/>
<stop offset="1" stop-color="#3919BB"/>
</radialGradient>
<linearGradient id="paint3_linear_921_3037" x1="5.68895" y1="68.6297" x2="234.661" y2="68.6297" gradientUnits="userSpaceOnUse">
<stop stop-color="#5F4FD8"/>
<stop offset="0.05" stop-color="#6953DB"/>
<stop offset="0.23" stop-color="#8B62E6"/>
<stop offset="0.41" stop-color="#A56EEE"/>
<stop offset="0.6" stop-color="#B876F5"/>
<stop offset="0.79" stop-color="#C47BF8"/>
<stop offset="1" stop-color="#C87DFA"/>
</linearGradient>
<linearGradient id="paint4_linear_921_3037" x1="5.68895" y1="68.6297" x2="234.661" y2="68.6297" gradientUnits="userSpaceOnUse">
<stop stop-color="#5F4FD8"/>
<stop offset="0.05" stop-color="#6953DB"/>
<stop offset="0.23" stop-color="#8B62E6"/>
<stop offset="0.41" stop-color="#A56EEE"/>
<stop offset="0.6" stop-color="#B876F5"/>
<stop offset="0.79" stop-color="#C47BF8"/>
<stop offset="1" stop-color="#C87DFA"/>
</linearGradient>
<linearGradient id="paint5_linear_921_3037" x1="0.0457331" y1="92.1037" x2="239.966" y2="92.1037" gradientUnits="userSpaceOnUse">
<stop stop-color="#C87DFA"/>
<stop offset="1" stop-color="#5F4FD8"/>
</linearGradient>
</defs>
</svg>
